<svg width="85" height="85" viewBox="0 0 85 85" fill="none" xmlns="http://www.w3.org/2000/svg">
<g clip-path="url(#clip0_8_52)">
<rect width="85" height="85" rx="21" fill="white"/>
<path d="M57.3515 76.8101C61.6838 74.4686 65.5126 71.2968 68.6191 67.4757C71.7256 63.6546 74.0491 59.259 75.4569 54.54C76.8647 49.8209 77.3292 44.8708 76.8239 39.9722C76.3187 35.0736 74.8535 30.3225 72.5121 25.9902C70.1706 21.6579 66.9988 17.8291 63.1777 14.7226C59.3566 11.6161 54.961 9.29258 50.242 7.88479C45.5229 6.477 40.5728 6.01249 35.6742 6.51777C30.7756 7.02305 26.0245 8.48822 21.6922 10.8296C25.7424 8.64071 31.3452 9.41947 35.9248 8.94709C40.5043 8.47472 45.1321 8.90898 49.5438 10.2251C53.9555 11.5412 58.0649 13.7134 61.6371 16.6176C65.2094 19.5218 68.1746 23.1012 70.3635 27.1514C72.5525 31.2016 73.9222 35.6432 74.3946 40.2228C74.867 44.8023 74.4327 49.4301 73.1166 53.8418C71.8005 58.2536 69.6283 62.3629 66.7241 65.9351C63.8199 69.5074 61.4017 74.6211 57.3515 76.8101Z" fill="#A61E2F"/>
<path d="M52.3417 77.8101C56.674 75.4686 60.5028 72.2968 63.6093 68.4757C66.7158 64.6546 69.0393 60.259 70.4471 55.54C71.8549 50.8209 72.3194 45.8708 71.8141 40.9722C71.3089 36.0736 69.8437 31.3225 67.5023 26.9902C65.1608 22.6579 61.989 18.8291 58.1679 15.7226C54.3468 12.6161 49.9512 10.2926 45.2322 8.88479C40.5131 7.477 35.563 7.01249 30.6644 7.51777C25.7658 8.02305 21.0147 9.48822 16.6824 11.8296C20.7326 9.64071 26.3354 10.4195 30.915 9.94709C35.4945 9.47472 40.1223 9.90898 44.534 11.2251C48.9458 12.5412 53.0551 14.7134 56.6273 17.6176C60.1996 20.5218 63.1648 24.1012 65.3537 28.1514C67.5427 32.2016 68.9124 36.6432 69.3848 41.2228C69.8572 45.8023 69.4229 50.4301 68.1068 54.8418C66.7907 59.2536 64.6185 63.3629 61.7143 66.9351C58.8101 70.5074 56.3919 75.6211 52.3417 77.8101Z" fill="#A61E2F"/>
<path d="M21.5138 19.9559L27.3246 19.9949L19.08 68.3113L13.1782 68.2718L21.5138 19.9559Z" fill="#A61E2F"/>
<path d="M33.4853 29.6593L39.2621 29.8903L32.728 68.5065L26.8606 68.2718L33.4853 29.6593Z" fill="#A61E2F"/>
<rect x="17.6824" y="44" width="17" height="7" fill="#A61E2F"/>
<path d="M42.1963 19.9559L48.007 19.9949L39.7624 68.3113L33.8606 68.2718L42.1963 19.9559Z" fill="#A61E2F"/>
<path d="M54.1677 29.6593L59.9445 29.8903L53.4104 68.5065L47.543 68.2718L54.1677 29.6593Z" fill="#A61E2F"/>
<rect x="38.3648" y="44" width="17" height="7" fill="#A61E2F"/>
</g>
<defs>
<clipPath id="clip0_8_52">
<rect width="85" height="85" rx="21" fill="white"/>
</clipPath>
</defs>
</svg>
